<svg width="25" height="25" viewBox="0 0 25 25" fill="none" xmlns="http://www.w3.org/2000/svg">
<path d="M22.3214 0H2.67857C1.1992 0 0 1.1992 0 2.67857V22.3214C0 23.8008 1.1992 25 2.67857 25H10.3376V16.5004H6.82199V12.5H10.3376V9.45115C10.3376 5.98261 12.4023 4.06727 15.5651 4.06727C17.0794 4.06727 18.6628 4.33698 18.6628 4.33698V7.741H16.9184C15.1989 7.741 14.6624 8.80824 14.6624 9.90223V12.5H18.5006L17.8868 16.5004H14.6624V25H22.3214C23.8008 25 25 23.8008 25 22.3214V2.67857C25 1.1992 23.8008 0 22.3214 0Z" fill="white"/>
</svg>
