<svg width="25" height="26" viewBox="0 0 25 26" fill="none" xmlns="http://www.w3.org/2000/svg">
<path d="M12.4738 7.02346C8.92649 7.02346 6.06526 9.88469 6.06526 13.4314C6.06526 16.9788 8.92649 19.84 12.4738 19.84C16.0206 19.84 18.8818 16.9788 18.8818 13.4314C18.8818 9.88469 16.0206 7.02346 12.4738 7.02346ZM12.4738 17.5981C10.1814 17.5981 8.30718 15.7297 8.30718 13.4314C8.30718 11.1338 10.1755 9.26539 12.4738 9.26539C14.7715 9.26539 16.6399 11.1338 16.6399 13.4314C16.6399 15.7297 14.7657 17.5981 12.4738 17.5981ZM20.6386 6.76145C20.6386 7.59222 19.9694 8.25626 19.1438 8.25626C18.3131 8.25626 17.649 7.58699 17.649 6.76145C17.649 5.93591 18.3183 5.26664 19.1438 5.26664C19.9694 5.26664 20.6386 5.93591 20.6386 6.76145ZM24.8831 8.27834C24.7878 6.27635 24.3306 4.50268 22.8637 3.04157C21.4026 1.57987 19.6289 1.12266 17.6269 1.02215C15.5634 0.905377 9.37847 0.905377 7.3149 1.02215C5.31815 1.11743 3.54448 1.57464 2.07755 3.03576C0.61063 4.49687 0.159224 6.27054 0.0587185 8.27253C-0.0586353 10.3361 -0.0586353 16.5216 0.0587185 18.5851C0.153415 20.5871 0.61063 22.3608 2.07755 23.8219C3.54448 25.283 5.31234 25.7408 7.3149 25.8407C9.37847 25.9581 15.5634 25.9581 17.6269 25.8407C19.6289 25.746 21.4026 25.2888 22.8637 23.8219C24.3254 22.3608 24.7826 20.5871 24.8831 18.5851C24.9999 16.5216 24.9999 10.3419 24.8831 8.27834ZM22.2171 20.7992C21.782 21.8925 20.9396 22.7344 19.841 23.1753C18.1957 23.8277 14.2916 23.6773 12.4738 23.6773C10.6554 23.6773 6.74556 23.8219 5.1061 23.1753C4.01273 22.7402 3.17092 21.8978 2.72997 20.7992C2.07755 19.1539 2.22802 15.2499 2.22802 13.4314C2.22802 11.6136 2.08336 7.70377 2.72997 6.0643C3.16511 4.97093 4.0075 4.12912 5.1061 3.68817C6.75137 3.03576 10.6554 3.18622 12.4738 3.18622C14.2916 3.18622 18.2015 3.04157 19.841 3.68817C20.9343 4.12331 21.7762 4.9657 22.2171 6.0643C22.8695 7.70958 22.719 11.6136 22.719 13.4314C22.719 15.2499 22.8695 19.1597 22.2171 20.7992Z" fill="white"/>
</svg>
