<svg width="135" height="72" viewBox="0 0 135 72" fill="none" xmlns="http://www.w3.org/2000/svg">
<path d="M85.02 34.151V2.912L80.648 0L64.992 7.427V12.67L56.257 15.582V19.388L49.752 21.203V34.016H48V36.141H49.752V36.151L51.72 36.141L51.743 22.614L62.689 19.953L62.625 36.11L64.189 36.121V36.141H67.875V34.016H66.75V21.207L64.083 17.203L58.296 18.819V17.184L69.655 13.324V36.112H77.737V34.003H76.207V12.961L71.768 10.193L67.107 11.796L67.179 8.883L78.537 3.494V36.26H86.692V34.151H85.02Z" fill="white"/>
<path d="M71.3459 20.03H63.3459V17.653L71.3459 16.23V20.03Z" fill="white"/>
<path d="M71.3459 18.608L63.3459 20.03V17.652L71.3459 16.23V18.608Z" fill="white"/>
<path d="M71.3459 18.608L63.3459 20.03V17.654L71.3459 16.23V18.608Z" fill="white"/>
<path d="M71.3459 18.608L63.3459 20.03V17.653L71.3459 16.23V18.608Z" fill="white"/>
<path d="M1.21802 46.2H3.47202V56H1.21802V46.2ZM14.8955 46.2V56H12.6275V51.982H8.17547V56H5.90747V46.2H8.17547V50.064H12.6275V46.2H14.8955ZM24.1408 50.89C24.7381 51.0673 25.1955 51.3567 25.5128 51.758C25.8301 52.1593 25.9888 52.654 25.9888 53.242C25.9888 54.11 25.6575 54.7867 24.9948 55.272C24.3415 55.7573 23.4035 56 22.1808 56H17.3508V46.2H21.9148C23.0535 46.2 23.9401 46.4193 24.5748 46.858C25.2095 47.2967 25.5268 47.922 25.5268 48.734C25.5268 49.2193 25.4055 49.6487 25.1628 50.022C24.9201 50.386 24.5795 50.6753 24.1408 50.89ZM19.6048 50.26H21.7188C22.2135 50.26 22.5868 50.162 22.8388 49.966C23.0908 49.7607 23.2168 49.462 23.2168 49.07C23.2168 48.6873 23.0861 48.3933 22.8248 48.188C22.5728 47.9827 22.2041 47.88 21.7188 47.88H19.6048V50.26ZM22.0968 54.32C23.1608 54.32 23.6928 53.9 23.6928 53.06C23.6928 52.248 23.1608 51.842 22.0968 51.842H19.6048V54.32H22.0968ZM35.3705 54.18V56H27.7825V46.2H35.1885V48.02H30.0365V50.148H34.5865V51.912H30.0365V54.18H35.3705ZM41.809 56.168C40.8104 56.168 39.905 55.9533 39.093 55.524C38.2904 55.0853 37.6557 54.4833 37.189 53.718C36.7317 52.9433 36.503 52.0707 36.503 51.1C36.503 50.1293 36.7317 49.2613 37.189 48.496C37.6557 47.7213 38.2904 47.1193 39.093 46.69C39.905 46.2513 40.815 46.032 41.823 46.032C42.6724 46.032 43.4377 46.1813 44.119 46.48C44.8097 46.7787 45.3884 47.208 45.855 47.768L44.399 49.112C43.7364 48.3467 42.915 47.964 41.935 47.964C41.3284 47.964 40.787 48.0993 40.311 48.37C39.835 48.6313 39.4617 49 39.191 49.476C38.9297 49.952 38.799 50.4933 38.799 51.1C38.799 51.7067 38.9297 52.248 39.191 52.724C39.4617 53.2 39.835 53.5733 40.311 53.844C40.787 54.1053 41.3284 54.236 41.935 54.236C42.915 54.236 43.7364 53.8487 44.399 53.074L45.855 54.418C45.3884 54.9873 44.8097 55.4213 44.119 55.72C43.4284 56.0187 42.6584 56.168 41.809 56.168ZM54.7275 48.048H51.5915V56H49.3515V48.048H46.2295V46.2H54.7275V48.048Z" fill="#236FB5"/>
<path d="M68.7477 46.2V56H66.4937V48.048H62.0697V56H59.8157V46.2H68.7477ZM75.419 46.2C76.287 46.2 77.0383 46.3447 77.673 46.634C78.317 46.9233 78.8117 47.334 79.157 47.866C79.5023 48.398 79.675 49.028 79.675 49.756C79.675 50.4747 79.5023 51.1047 79.157 51.646C78.8117 52.178 78.317 52.5887 77.673 52.878C77.0383 53.158 76.287 53.298 75.419 53.298H73.445V56H71.177V46.2H75.419ZM75.293 51.45C75.9743 51.45 76.4923 51.3053 76.847 51.016C77.2017 50.7173 77.379 50.2973 77.379 49.756C77.379 49.2053 77.2017 48.7853 76.847 48.496C76.4923 48.1973 75.9743 48.048 75.293 48.048H73.445V51.45H75.293ZM88.7591 54.18V56H81.1711V46.2H88.5771V48.02H83.4251V50.148H87.9751V51.912H83.4251V54.18H88.7591ZM95.1977 56.168C94.199 56.168 93.2937 55.9533 92.4817 55.524C91.679 55.0853 91.0444 54.4833 90.5777 53.718C90.1204 52.9433 89.8917 52.0707 89.8917 51.1C89.8917 50.1293 90.1204 49.2613 90.5777 48.496C91.0444 47.7213 91.679 47.1193 92.4817 46.69C93.2937 46.2513 94.2037 46.032 95.2117 46.032C96.061 46.032 96.8264 46.1813 97.5077 46.48C98.1984 46.7787 98.777 47.208 99.2437 47.768L97.7877 49.112C97.125 48.3467 96.3037 47.964 95.3237 47.964C94.717 47.964 94.1757 48.0993 93.6997 48.37C93.2237 48.6313 92.8504 49 92.5797 49.476C92.3184 49.952 92.1877 50.4933 92.1877 51.1C92.1877 51.7067 92.3184 52.248 92.5797 52.724C92.8504 53.2 93.2237 53.5733 93.6997 53.844C94.1757 54.1053 94.717 54.236 95.3237 54.236C96.3037 54.236 97.125 53.8487 97.7877 53.074L99.2437 54.418C98.777 54.9873 98.1984 55.4213 97.5077 55.72C96.817 56.0187 96.047 56.168 95.1977 56.168ZM108.116 48.048H104.98V56H102.74V48.048H99.6182V46.2H108.116V48.048ZM109.54 46.2H111.794V52.584L116.47 46.2H118.598V56H116.358V49.63L111.682 56H109.54V46.2ZM129.928 52.052H128.5V56H126.274V52.052H124.818L122.62 56H120.002L122.942 50.876L120.184 46.2H122.578L124.776 50.162H126.274V46.2H128.5V50.162H129.956L132.168 46.2H134.562L131.818 50.876L134.744 56H132.126L129.928 52.052Z" fill="white"/>
<path d="M12.5699 64.78C12.5699 63.6067 12.7466 62.6933 13.0999 62.04C13.4532 61.38 14.0232 60.9667 14.8099 60.8C15.2432 60.7067 15.6666 60.6233 16.0799 60.55C16.4932 60.4767 16.8799 60.41 17.2399 60.35L17.3899 61.12C17.1566 61.1533 16.8932 61.1967 16.5999 61.25C16.3066 61.2967 16.0166 61.3467 15.7299 61.4C15.4432 61.4467 15.1966 61.4933 14.9899 61.54C14.5566 61.6333 14.2132 61.86 13.9599 62.22C13.7066 62.5733 13.5632 63.1267 13.5299 63.88H13.5899C13.6832 63.7533 13.8099 63.6233 13.9699 63.49C14.1366 63.3567 14.3332 63.2433 14.5599 63.15C14.7932 63.0567 15.0566 63.01 15.3499 63.01C16.0432 63.01 16.5666 63.2333 16.9199 63.68C17.2732 64.1267 17.4499 64.7067 17.4499 65.42C17.4499 66.0133 17.3466 66.51 17.1399 66.91C16.9332 67.31 16.6466 67.61 16.2799 67.81C15.9132 68.0033 15.4866 68.1 14.9999 68.1C14.2599 68.1 13.6699 67.8167 13.2299 67.25C12.7899 66.6833 12.5699 65.86 12.5699 64.78ZM15.0699 67.37C15.5032 67.37 15.8532 67.23 16.1199 66.95C16.3866 66.67 16.5199 66.19 16.5199 65.51C16.5199 64.9633 16.4166 64.5333 16.2099 64.22C16.0099 63.9 15.6766 63.74 15.2099 63.74C14.9166 63.74 14.6499 63.8067 14.4099 63.94C14.1699 64.0667 13.9699 64.2133 13.8099 64.38C13.6499 64.5467 13.5366 64.6867 13.4699 64.8C13.4699 65.1267 13.4932 65.4433 13.5399 65.75C13.5866 66.0567 13.6666 66.3333 13.7799 66.58C13.8999 66.82 14.0632 67.0133 14.2699 67.16C14.4832 67.3 14.7499 67.37 15.0699 67.37ZM17.9962 62.64H18.9362L20.0962 65.69C20.1962 65.9567 20.2862 66.2133 20.3662 66.46C20.4462 66.7 20.5062 66.93 20.5462 67.15H20.5862C20.6262 66.9833 20.6896 66.7667 20.7762 66.5C20.8629 66.2267 20.9529 65.9533 21.0462 65.68L22.1362 62.64H23.0862L20.7762 68.74C20.5896 69.2467 20.3462 69.65 20.0462 69.95C19.7529 70.25 19.3462 70.4 18.8262 70.4C18.6662 70.4 18.5262 70.39 18.4062 70.37C18.2862 70.3567 18.1829 70.34 18.0962 70.32V69.62C18.1696 69.6333 18.2562 69.6467 18.3562 69.66C18.4629 69.6733 18.5729 69.68 18.6862 69.68C18.9929 69.68 19.2396 69.5933 19.4262 69.42C19.6196 69.2467 19.7696 69.0167 19.8762 68.73L20.1562 68.02L17.9962 62.64ZM27.7186 62.64V67.26H28.4986V69.86H27.6486V68H23.9186V69.86H23.0786V67.26H23.5086C23.9686 66.6267 24.3119 65.9067 24.5386 65.1C24.7719 64.2867 24.8919 63.4667 24.8986 62.64H27.7186ZM25.6786 63.33C25.6519 63.7833 25.5819 64.2533 25.4686 64.74C25.3552 65.22 25.2086 65.68 25.0286 66.12C24.8552 66.56 24.6519 66.94 24.4186 67.26H26.8686V63.33H25.6786ZM30.4291 68H29.5491V62.64H30.4291V68ZM36.4372 63.99C36.4372 64.3233 36.3372 64.5833 36.1372 64.77C35.9372 64.9567 35.6806 65.0833 35.3672 65.15V65.19C35.7006 65.2367 35.9906 65.3567 36.2372 65.55C36.4839 65.7367 36.6072 66.03 36.6072 66.43C36.6072 66.8833 36.4372 67.26 36.0972 67.56C35.7639 67.8533 35.2106 68 34.4372 68H32.1272V62.64H34.4272C34.8072 62.64 35.1472 62.6833 35.4472 62.77C35.7539 62.85 35.9939 62.99 36.1672 63.19C36.3472 63.3833 36.4372 63.65 36.4372 63.99ZM35.5472 64.1C35.5472 63.8467 35.4539 63.6633 35.2672 63.55C35.0872 63.43 34.7906 63.37 34.3772 63.37H33.0072V64.84H34.2172C35.1039 64.84 35.5472 64.5933 35.5472 64.1ZM35.6972 66.43C35.6972 66.1233 35.5806 65.9033 35.3472 65.77C35.1139 65.6367 34.7706 65.57 34.3172 65.57H33.0072V67.29H34.3372C34.7772 67.29 35.1139 67.2267 35.3472 67.1C35.5806 66.9667 35.6972 66.7433 35.6972 66.43ZM39.959 62.54C40.419 62.54 40.8123 62.64 41.139 62.84C41.4723 63.04 41.7256 63.3233 41.899 63.69C42.079 64.05 42.169 64.4733 42.169 64.96V65.49H38.499C38.5123 66.0967 38.6656 66.56 38.959 66.88C39.259 67.1933 39.6756 67.35 40.209 67.35C40.549 67.35 40.849 67.32 41.109 67.26C41.3756 67.1933 41.649 67.1 41.929 66.98V67.75C41.6556 67.87 41.3856 67.9567 41.119 68.01C40.8523 68.07 40.5356 68.1 40.169 68.1C39.6623 68.1 39.2123 67.9967 38.819 67.79C38.4323 67.5833 38.129 67.2767 37.909 66.87C37.6956 66.4567 37.589 65.9533 37.589 65.36C37.589 64.7733 37.6856 64.27 37.879 63.85C38.079 63.43 38.3556 63.1067 38.709 62.88C39.069 62.6533 39.4856 62.54 39.959 62.54ZM39.949 63.26C39.529 63.26 39.1956 63.3967 38.949 63.67C38.709 63.9367 38.5656 64.31 38.519 64.79H41.249C41.2423 64.3367 41.1356 63.97 40.929 63.69C40.7223 63.4033 40.3956 63.26 39.949 63.26ZM47.6135 68H46.7235V63.37H45.1435C45.0568 64.4967 44.9368 65.4067 44.7835 66.1C44.6302 66.7867 44.4268 67.2867 44.1735 67.6C43.9202 67.9133 43.6002 68.07 43.2135 68.07C43.1268 68.07 43.0402 68.0633 42.9535 68.05C42.8735 68.0433 42.8068 68.0267 42.7535 68V67.34C42.7935 67.3533 42.8368 67.3633 42.8835 67.37C42.9302 67.3767 42.9768 67.38 43.0235 67.38C43.3835 67.38 43.6702 66.9967 43.8835 66.23C44.1035 65.4633 44.2702 64.2667 44.3835 62.64H47.6135V68ZM51.7847 64.84C53.1781 64.84 53.8747 65.3467 53.8747 66.36C53.8747 66.86 53.7047 67.26 53.3647 67.56C53.0247 67.8533 52.4847 68 51.7447 68H49.3147V62.64H50.1947V64.84H51.7847ZM52.9947 66.41C52.9947 66.0833 52.8781 65.8633 52.6447 65.75C52.4181 65.63 52.0981 65.57 51.6847 65.57H50.1947V67.29H51.7047C52.0781 67.29 52.3847 67.2233 52.6247 67.09C52.8714 66.9567 52.9947 66.73 52.9947 66.41ZM56.1322 62.64V64.87H59.0422V62.64H59.9222V68H59.0422V65.61H56.1322V68H55.2522V62.64H56.1322ZM62.4494 65.91C62.4494 65.99 62.4461 66.11 62.4394 66.27C62.4328 66.43 62.4228 66.59 62.4094 66.75C62.4028 66.91 62.3961 67.0367 62.3894 67.13L65.2594 62.64H66.3394V68H65.5194V64.84C65.5194 64.7333 65.5194 64.5933 65.5194 64.42C65.5261 64.2467 65.5328 64.0767 65.5394 63.91C65.5461 63.7367 65.5528 63.6067 65.5594 63.52L62.7094 68H61.6194V62.64H62.4494V65.91ZM72.3852 60.42C72.3385 60.92 72.1685 61.3 71.8752 61.56C71.5885 61.8133 71.1285 61.94 70.4952 61.94C69.8419 61.94 69.3785 61.8133 69.1052 61.56C68.8385 61.3067 68.6885 60.9267 68.6552 60.42H69.4753C69.5086 60.78 69.6019 61.0233 69.7552 61.15C69.9152 61.27 70.1685 61.33 70.5152 61.33C70.8219 61.33 71.0619 61.2667 71.2352 61.14C71.4152 61.0067 71.5219 60.7667 71.5552 60.42H72.3852ZM68.8752 65.91C68.8752 65.99 68.8719 66.11 68.8652 66.27C68.8585 66.43 68.8485 66.59 68.8352 66.75C68.8285 66.91 68.8219 67.0367 68.8152 67.13L71.6852 62.64H72.7652V68H71.9452V64.84C71.9452 64.7333 71.9452 64.5933 71.9452 64.42C71.9519 64.2467 71.9585 64.0767 71.9652 63.91C71.9719 63.7367 71.9785 63.6067 71.9852 63.52L69.1352 68H68.0452V62.64H68.8752V65.91ZM80.307 62.64H81.267L78.977 65.22L81.457 68H80.437L78.017 65.28V68H77.137V62.64H78.017V65.24L80.307 62.64ZM86.8947 65.31C86.8947 66.1967 86.668 66.8833 86.2147 67.37C85.768 67.8567 85.1613 68.1 84.3947 68.1C83.9213 68.1 83.498 67.9933 83.1247 67.78C82.758 67.56 82.468 67.2433 82.2547 66.83C82.0413 66.41 81.9347 65.9033 81.9347 65.31C81.9347 64.4233 82.158 63.74 82.6047 63.26C83.0513 62.78 83.658 62.54 84.4247 62.54C84.9113 62.54 85.3381 62.65 85.7048 62.87C86.0781 63.0833 86.368 63.3967 86.5747 63.81C86.788 64.2167 86.8947 64.7167 86.8947 65.31ZM82.8447 65.31C82.8447 65.9433 82.968 66.4467 83.2147 66.82C83.468 67.1867 83.868 67.37 84.4147 67.37C84.9547 67.37 85.3513 67.1867 85.6047 66.82C85.858 66.4467 85.9847 65.9433 85.9847 65.31C85.9847 64.6767 85.858 64.18 85.6047 63.82C85.3513 63.46 84.9513 63.28 84.4047 63.28C83.858 63.28 83.4613 63.46 83.2147 63.82C82.968 64.18 82.8447 64.6767 82.8447 65.31ZM94.0394 62.64V68H93.2494V64.58C93.2494 64.44 93.2527 64.2933 93.2594 64.14C93.2727 63.9867 93.286 63.8367 93.2994 63.69H93.2694L91.5194 68H90.7794L89.0794 63.69H89.0494C89.0694 63.99 89.0794 64.2967 89.0794 64.61V68H88.2894V62.64H89.4594L91.1494 66.95L92.8694 62.64H94.0394ZM100.28 62.64V68H99.4003V63.39H96.6303V68H95.7503V62.64H100.28ZM106.071 68H105.181V63.37H103.601C103.514 64.4967 103.394 65.4067 103.241 66.1C103.087 66.7867 102.884 67.2867 102.631 67.6C102.377 67.9133 102.057 68.07 101.671 68.07C101.584 68.07 101.497 68.0633 101.411 68.05C101.331 68.0433 101.264 68.0267 101.211 68V67.34C101.251 67.3533 101.294 67.3633 101.341 67.37C101.387 67.3767 101.434 67.38 101.481 67.38C101.841 67.38 102.127 66.9967 102.341 66.23C102.561 65.4633 102.727 64.2667 102.841 62.64H106.071V68ZM109.842 62.54C110.302 62.54 110.695 62.64 111.022 62.84C111.355 63.04 111.609 63.3233 111.782 63.69C111.962 64.05 112.052 64.4733 112.052 64.96V65.49H108.382C108.395 66.0967 108.549 66.56 108.842 66.88C109.142 67.1933 109.559 67.35 110.092 67.35C110.432 67.35 110.732 67.32 110.992 67.26C111.259 67.1933 111.532 67.1 111.812 66.98V67.75C111.539 67.87 111.269 67.9567 111.002 68.01C110.735 68.07 110.419 68.1 110.052 68.1C109.545 68.1 109.095 67.9967 108.702 67.79C108.315 67.5833 108.012 67.2767 107.792 66.87C107.579 66.4567 107.472 65.9533 107.472 65.36C107.472 64.7733 107.569 64.27 107.762 63.85C107.962 63.43 108.239 63.1067 108.592 62.88C108.952 62.6533 109.369 62.54 109.842 62.54ZM109.832 63.26C109.412 63.26 109.079 63.3967 108.832 63.67C108.592 63.9367 108.449 64.31 108.402 64.79H111.132C111.125 64.3367 111.019 63.97 110.812 63.69C110.605 63.4033 110.279 63.26 109.832 63.26ZM116.586 62.64H117.546L115.256 65.22L117.736 68H116.716L114.296 65.28V68H113.416V62.64H114.296V65.24L116.586 62.64ZM120.664 68.1C120.191 68.1 119.767 68.0033 119.394 67.81C119.027 67.6167 118.737 67.3167 118.524 66.91C118.317 66.5033 118.214 65.9833 118.214 65.35C118.214 64.69 118.324 64.1533 118.544 63.74C118.764 63.3267 119.061 63.0233 119.434 62.83C119.814 62.6367 120.244 62.54 120.724 62.54C120.997 62.54 121.261 62.57 121.514 62.63C121.767 62.6833 121.974 62.75 122.134 62.83L121.864 63.56C121.704 63.5 121.517 63.4433 121.304 63.39C121.091 63.3367 120.891 63.31 120.704 63.31C119.651 63.31 119.124 63.9867 119.124 65.34C119.124 65.9867 119.251 66.4833 119.504 66.83C119.764 67.17 120.147 67.34 120.654 67.34C120.947 67.34 121.204 67.31 121.424 67.25C121.651 67.19 121.857 67.1167 122.044 67.03V67.81C121.864 67.9033 121.664 67.9733 121.444 68.02C121.231 68.0733 120.971 68.1 120.664 68.1Z" fill="white"/>
</svg>
