<svg width="25" height="25" viewBox="0 0 25 25" fill="none" xmlns="http://www.w3.org/2000/svg">
<path d="M12.5 0C5.59476 0 0 5.59476 0 12.5C0 19.4052 5.59476 25 12.5 25C19.4052 25 25 19.4052 25 12.5C25 5.59476 19.4052 0 12.5 0ZM18.6392 8.5633L16.5879 18.2307C16.4367 18.9164 16.0282 19.0829 15.4586 18.76L12.3336 16.4567L10.8267 17.9084C10.6603 18.0748 10.519 18.2155 10.1967 18.2155L10.4182 15.0354L16.2099 9.80343C16.4619 9.58186 16.1542 9.45586 15.8214 9.67742L8.6641 14.1833L5.57953 13.2209C4.90906 13.0093 4.89436 12.5504 5.72077 12.228L17.7724 7.58044C18.3315 7.37882 18.8204 7.71694 18.6392 8.5633Z" fill="white"/>
</svg>
