<svg width="26" height="27" viewBox="0 0 26 27" fill="none" xmlns="http://www.w3.org/2000/svg">
<path d="M23.1271 2.57999C22.4734 1.97771 19.8267 0.0571782 13.9267 0.0314352C13.9267 0.0314352 6.97076 -0.385279 3.58288 2.72426C1.69882 4.60885 1.03433 7.37354 0.962465 10.7974C0.890599 14.2212 0.802644 20.6365 6.98631 22.3763H6.99168L6.98631 25.0332C6.98631 25.0332 6.94502 26.109 7.65563 26.3257C8.51051 26.5933 9.01465 25.7744 9.83359 24.8943C10.2814 24.41 10.8992 23.6999 11.368 23.1593C15.6 23.5144 18.8485 22.7008 19.2196 22.5823C20.0739 22.3045 24.9088 21.6866 25.6913 15.2713C26.5048 8.6505 25.2997 4.46995 23.1271 2.57999ZM23.8426 14.7875C23.1786 20.142 19.2603 20.4821 18.5395 20.7138C18.2306 20.8114 15.3732 21.522 11.7847 21.2903C11.7847 21.2903 9.10743 24.5183 8.27346 25.3577C8.00048 25.6307 7.70175 25.6049 7.70712 25.0643C7.70712 24.7087 7.7275 20.6515 7.7275 20.6515C7.72267 20.6515 7.72267 20.6515 7.7275 20.6515C2.48666 19.1997 2.79558 13.7374 2.85189 10.8799C2.90874 8.02248 3.44934 5.67987 5.0454 4.10418C7.91306 1.50415 13.8184 1.89029 13.8184 1.89029C18.8077 1.91067 21.1964 3.41449 21.7526 3.91862C23.5905 5.4943 24.5275 9.26296 23.8426 14.7875ZM16.686 10.6273C16.707 11.0703 16.0425 11.1009 16.0221 10.6584C15.9652 9.52576 15.4354 8.97497 14.3434 8.91275C13.901 8.88701 13.9423 8.22306 14.3799 8.2488C15.8161 8.32603 16.6142 9.1498 16.686 10.6273ZM17.7313 11.2092C17.7828 9.02645 16.4184 7.31669 13.8286 7.1263C13.3909 7.09573 13.4376 6.43124 13.8752 6.46235C16.8614 6.67848 18.4521 8.73255 18.3958 11.2248C18.3904 11.6672 17.7211 11.6469 17.7313 11.2092ZM20.1512 11.8989C20.1565 12.3419 19.4872 12.3473 19.4872 11.9043C19.4561 7.7082 16.6603 5.42244 13.2676 5.3967C12.83 5.39133 12.83 4.73221 13.2676 4.73221C17.062 4.75795 20.1152 7.3789 20.1512 11.8989ZM19.5693 16.9499V16.9601C19.0136 17.9383 17.9732 19.0195 16.9027 18.6747L16.892 18.6591C15.806 18.3556 13.2472 17.0373 11.6302 15.7502C10.7963 15.0911 10.0342 14.3139 9.44745 13.5674C8.91704 12.9029 8.3818 12.1156 7.86158 11.1679C6.76482 9.18574 6.52294 8.30029 6.52294 8.30029C6.17809 7.22927 7.25393 6.18936 8.23753 5.63321H8.24772C8.72128 5.38597 9.17447 5.46856 9.47802 5.83433C9.47802 5.83433 10.1168 6.59589 10.3897 6.97184C10.6472 7.32205 10.992 7.88304 11.1722 8.19731C11.486 8.7583 11.2908 9.33 10.9818 9.56705L10.364 10.061C10.0497 10.3136 10.091 10.7818 10.091 10.7818C10.091 10.7818 11.0076 14.2469 14.4314 15.1222C14.4314 15.1222 14.8996 15.1635 15.1522 14.8492L15.6461 14.2314C15.8832 13.9224 16.4544 13.7267 17.0159 14.041C17.7726 14.4684 18.7353 15.1324 19.374 15.7346C19.7344 16.0285 19.8165 16.4764 19.5693 16.9499Z" fill="white"/>
</svg>
