<svg width="30" height="30" viewBox="0 0 30 30" fill="none" xmlns="http://www.w3.org/2000/svg">
<path d="M15 0C6.75591 0 0 6.75591 0 15C0 17.7246 0.738144 20.3613 2.127 22.6817L0 30L7.31827 27.873C9.63867 29.2616 12.2754 30 15 30C23.2441 30 30 23.2441 30 15C30 6.75591 23.2441 0 15 0Z" fill="#00DD7B"/>
<path d="M30 15C30 23.2441 23.2441 30 15 30V0C23.2441 0 30 6.75591 30 15Z" fill="#00CC71"/>
<path d="M24.4453 21.3457L23.7422 22.0312C22.7578 23.0157 20.4726 22.9452 19.0137 22.6641C17.713 22.418 16.3184 21.8378 15 21.0292C11.4142 18.8496 8.1622 14.9824 7.37119 11.502C6.82622 9.14634 7.12514 7.10746 7.89853 6.31644L8.60166 5.61332C8.98847 5.24413 9.60347 5.24413 9.99028 5.61332L12.7852 8.40819C12.9786 8.6016 13.0841 8.84764 13.0841 9.11132C13.0841 9.37499 12.9786 9.62104 12.7852 9.81444L12.082 10.4999C11.3263 11.2733 11.3263 12.5214 12.082 13.2948L15 16.1602L16.705 17.8477C17.4786 18.6211 18.7853 18.6211 19.5587 17.8477L20.2442 17.1444C20.6134 16.7928 21.2813 16.7928 21.6504 17.1444L24.4453 19.9395C24.8145 20.3261 24.8321 20.9413 24.4453 21.3457V21.3457Z" fill="#ECECF1"/>
<path d="M24.4453 21.3458L23.7421 22.0313C22.7577 23.0157 20.4726 22.9452 19.0137 22.6641C17.7129 22.4181 16.3184 21.8379 15 21.0292V16.1602L16.7049 17.8478C17.4786 18.6212 18.7852 18.6212 19.5586 17.8478L20.2441 17.1444C20.6133 16.7928 21.2812 16.7928 21.6504 17.1444L24.4453 19.9395C24.8144 20.3261 24.8321 20.9413 24.4453 21.3458V21.3458Z" fill="#E2E2E7"/>
</svg>
